<?xml version="1.0" standalone="no"?>
<!DOCTYPE svg PUBLIC "-//W3C//DTD SVG 20010904//EN"
 "http://www.w3.org/TR/2001/REC-SVG-20010904/DTD/svg10.dtd">
<svg version="1.0" xmlns="http://www.w3.org/2000/svg"
 width="250.000000pt" height="250.000000pt" viewBox="0 0 250.000000 250.000000"
 preserveAspectRatio="xMidYMid meet">
<metadata>
Created by potrace 1.11, written by Peter Selinger 2001-2013
</metadata>
<g transform="translate(0.000000,250.000000) scale(0.100000,-0.100000)"
fill="#000000" stroke="none">
<path d="M1060 2300 c-41 -4 -195 -8 -342 -9 l-268 -1 0 -64 0 -64 115 -12
115 -13 0 -898 c0 -846 -1 -898 -17 -903 -10 -2 -52 -7 -93 -11 -135 -11 -130
-8 -130 -74 l0 -58 353 -9 c468 -11 603 -9 722 11 171 29 284 79 380 166 105
96 165 216 185 372 42 314 -138 538 -459 573 l-65 6 50 19 c141 53 247 159
295 295 67 191 38 391 -75 512 -128 137 -407 196 -766 162z m296 -131 c250
-35 353 -159 341 -414 -5 -115 -24 -181 -73 -248 -46 -63 -104 -103 -188 -130
-64 -20 -92 -22 -291 -22 l-220 0 -3 402 -2 402 42 5 c126 17 295 19 394 5z
m169 -983 c146 -34 242 -115 282 -235 28 -86 25 -286 -6 -364 -61 -153 -184
-236 -400 -267 -86 -13 -430 -9 -463 5 -17 7 -18 37 -18 440 l0 434 33 4 c17
3 138 4 267 2 174 -2 253 -7 305 -19z"/>
</g>
</svg>
